PathFileType	4	(X/Y/Z)	Walk1_0-155.trc
DataRate	CameraRate	NumFrames	NumMarkers	Units	OrigDataRate	OrigDataStartFrame	OrigNumFrames
30	30	4	22	m	30	0	155
Frame#	Time	Hip			RHip			RKnee			RAnkle			RBigToe			RSmallToe			RHeel			LHip			LKnee			LAnkle			LBigToe			LSmallToe			LHeel			Neck			Head			Nose			RShoulder			RElbow			RWrist			LShoulder			LElbow			LWrist		
		X1	Y1	Z1	X2	Y2	Z2	X3	Y3	Z3	X4	Y4	Z4	X5	Y5	Z5	X6	Y6	Z6	X7	Y7	Z7	X8	Y8	Z8	X9	Y9	Z9	X10	Y10	Z10	X11	Y11	Z11	X12	Y12	Z12	X13	Y13	Z13	X14	Y14	Z14	X15	Y15	Z15	X16	Y16	Z16	X17	Y17	Z17	X18	Y18	Z18	X19	Y19	Z19	X20	Y20	Z20	X21	Y21	Z21	X22	Y22	Z22
1	0.03333333333333333	-2.582328619099983	0.8353448530829378	0.39018727211212473	-2.564329065779891	0.7995369713210929	0.47434999412279805	-2.5975374466157324	0.451999586454854	0.5022479158502519	-2.633145689163886	0.06997040864974328	0.5125035085190801	-2.4391081925172133	-0.017591102832150277	0.5466109464609011	-2.4487500521865173	-0.02059010894647323	0.6100130574980197	-2.607524888829277	0.0017018582578762849	0.5072119085943919	-2.577570120502459	0.8021853606516435	0.3054350731229947	-2.5547503339638675	0.45839519441608123	0.2859497540307213	-2.573510525724315	0.07882334435885381	0.2781935858034056	-2.386330332063472	-0.004032027165120726	0.27085661679572853	-2.4279775485005466	-0.01067968140972313	0.20920303864039383	-2.618240911162694	-0.017211822897507882	0.29686398307907047	-2.5386922384305475	1.5037071866990288	0.3922432387755491	-2.5424975016666402	1.7826990181712816	0.3767147135589924	-2.4143378850402204	1.6548332995182904	0.3938900150814545	-2.5675028425463484	1.3824280507450257	0.575915481642164	-2.5678529512304955	1.09873768302258	0.6252536813946846	-2.4906870766937836	0.8539695248041654	0.6098689438019904	-2.5705152392437856	1.3990446840991764	0.20637564350508508	-2.546571000790159	1.0950546746615115	0.15265195703062465	-2.488105101814663	0.850091611268185	0.16870003534710892
2	0.06666666666666667	-2.5817363407789906	0.8357923469915866	0.38805663677909435	-2.5613553544134775	0.8000003160148588	0.47728463171567587	-2.59927662582265	0.44756955397947995	0.5046677464991791	-2.6341903780580522	0.06983228825777968	0.5124565871394363	-2.3882350174732774	-0.010979449038082754	0.5445346969721387	-2.440560516417945	-0.013233286681287024	0.6082573980335663	-2.606535590902669	0.004507744381149244	0.5032768008192235	-2.5793785561605382	0.8011418618420973	0.3033548320919067	-2.5541980406461664	0.4569684862817561	0.28599301705856495	-2.572832046917748	0.07918122590976075	0.27930298041829676	-2.384230610785257	-0.002783798152901743	0.26976888994828163	-2.4278498763433287	-0.008801738121690515	0.2064824711327175	-2.619866027521737	-0.01782369467763906	0.2971024685635425	-2.538215233708788	1.5015677625275536	0.3943982279784614	-2.5225525623532423	1.773744697369922	0.24563026604267615	-2.415991708107033	1.655974671796114	0.3798381247749488	-2.562298534484417	1.3820840367940521	0.5783009788919771	-2.5640764719101763	1.0974987228871211	0.6265060162224643	-2.48935132631782	0.8559765201782845	0.6106460517016439	-2.5723729510136226	1.4003686596030527	0.20540046884832044	-2.546618191594687	1.0968295549504417	0.1527292921473426	-2.487267216353637	0.8559745916477964	0.16654714034728083
3	0.1	-2.581968144878854	0.8342387562370353	0.38724233776838124	-2.559480432449328	0.8002447015007234	0.47667687568035494	-2.5985436088558007	0.44764806611816393	0.5046846793190227	-2.6341158524664015	0.07116308535147527	0.5137462067995051	-2.383847197019939	-0.005212480192250142	0.5405907355969227	-2.4330088511088834	-0.007348513214900664	0.603127757186202	-2.605660739099712	0.009292892875618837	0.5042129853498125	-2.579532868819457	0.7982640202444256	0.2987764389094818	-2.5502443477090653	0.4571201998966581	0.28359438586480556	-2.570913989140626	0.07727025747309375	0.2825332793633928	-2.3816147119203195	-0.005062197324383438	0.26964443286506384	-2.428654817824979	-0.013619395519724896	0.20836182141350804	-2.6178876274576885	-0.014386312511689705	0.29776479590263044	-2.537031517406433	1.5012771569383956	0.39175167765483154	-2.5401626683998924	1.7800921680255828	0.3666631424133161	-2.4137969674120336	1.6562058923359018	0.365721934520539	-2.5615701987133486	1.3832159212646613	0.5758797346205217	-2.563358962954802	1.096195754916012	0.6240219092620856	-2.4881739109748096	0.8541565289603678	0.6094313924106305	-2.5712111952168692	1.400626278239474	0.20113389852995847	-2.545758884106425	1.093974975115696	0.1501303248946949	-2.4851593333737036	0.8540826343765754	0.16583970768125006
4	0.13333333333333333	-2.5811770214812664	0.8333198825513392	0.3839735845728256	-2.5606299698598987	0.7996823715568805	0.47494455712498723	-2.60032339191352	0.4462330038863097	0.5034267549977964	-2.5724170438298946	0.08426775315909632	0.510544629422128	-2.3801972081668676	-0.001856515164073882	0.5438177493052173	-2.4289339088968878	-0.004118255604396234	0.6062189267613614	-2.605510488269003	0.011352597919497552	0.5054320327000823	-2.5787894318451565	0.7982049622637984	0.2976203507361804	-2.5462443775815027	0.45805686197174666	0.28245645587773227	-2.5720782663744304	0.07787528350906942	0.28059221759041963	-2.383673530870803	-0.004969787913317655	0.2727104606662223	-2.4284831583151645	-0.014161139080676293	0.20813223915067874	-2.61639354610238	-0.012773082454362296	0.2966421746132853	-2.5342022331860785	1.5012083846275266	0.39020704905837295	-2.5389373361202088	1.780283955746292	0.3629347339715356	-2.4117972090385194	1.6552906353025647	0.35878598669963624	-2.5604113435366442	1.384831130086456	0.575429819061644	-2.561586278048931	1.095200953740594	0.6236133877989392	-2.4867905879103342	0.8535608456508038	0.6091961654237397	-2.57009838601305	1.4015648536167697	0.1995055324482808	-2.5433757765327862	1.0963761008524426	0.14867445373023536	-2.482557145195529	0.8556100500434787	0.16463997952551404
